<svg width="12" height="13" viewBox="0 0 12 13" fill="none" xmlns="http://www.w3.org/2000/svg">
<path d="M0.666992 7.55591H4.66699C4.82111 7.55599 4.96914 7.61684 5.07812 7.72583C5.18711 7.83482 5.24796 7.98284 5.24805 8.13696L5.24805 12.137C5.24805 12.291 5.18699 12.4391 5.07812 12.5481C4.96914 12.6571 4.82111 12.7189 4.66699 12.719H0.666992C0.512753 12.719 0.364923 12.6572 0.255859 12.5481C0.146796 12.439 0.0849609 12.2912 0.0849609 12.137L0.0849609 8.13696C0.0850471 7.98284 0.146872 7.83482 0.255859 7.72583C0.364892 7.61697 0.512907 7.55591 0.666992 7.55591ZM9.33301 7.55591C10.7566 7.55591 11.9149 8.71345 11.915 10.137C11.915 11.5606 10.7567 12.719 9.33301 12.719C7.90949 12.7188 6.75195 11.5605 6.75195 10.137C6.75213 8.71356 7.9096 7.55608 9.33301 7.55591ZM1.24805 11.5559H4.08496L4.08496 8.71899H1.24805L1.24805 11.5559ZM9.33301 8.71899C8.55093 8.71917 7.91522 9.35488 7.91504 10.137C7.91504 10.9192 8.55082 11.5557 9.33301 11.5559C10.1153 11.5559 10.752 10.9193 10.752 10.137C10.7518 9.35478 10.1152 8.71899 9.33301 8.71899ZM0.666992 0.888916L4.66699 0.888916C4.82111 0.889002 4.96914 0.950827 5.07812 1.05981C5.18699 1.16885 5.24805 1.31686 5.24805 1.47095V5.47095C5.24796 5.62507 5.18711 5.77309 5.07812 5.88208C4.96914 5.99107 4.82111 6.05192 4.66699 6.052H0.666992C0.512906 6.052 0.364892 5.99094 0.255859 5.88208C0.146872 5.77309 0.0850471 5.62507 0.0849609 5.47095L0.0849609 1.47095C0.0849609 1.31671 0.146796 1.16888 0.255859 1.05981C0.364923 0.950751 0.512753 0.888916 0.666992 0.888916ZM7.33301 0.888916L11.333 0.888916C11.4872 0.888916 11.6351 0.950751 11.7441 1.05981C11.8532 1.16888 11.915 1.31671 11.915 1.47095V5.47095C11.915 5.62507 11.8531 5.77309 11.7441 5.88208C11.6351 5.99094 11.4871 6.052 11.333 6.052L7.33301 6.052C7.17889 6.05192 7.03086 5.99107 6.92188 5.88208C6.81289 5.77309 6.75204 5.62507 6.75195 5.47095V1.47095C6.75195 1.31686 6.81302 1.16885 6.92188 1.05981C7.03086 0.950827 7.17889 0.889002 7.33301 0.888916ZM1.24805 4.88892H4.08496V2.052H1.24805L1.24805 4.88892ZM7.91504 4.88892L10.752 4.88892V2.052L7.91504 2.052V4.88892Z" fill="#424242" stroke="#424242" stroke-width="0.170213"/>
</svg>
