<svg width="17" height="15" viewBox="0 0 17 15" fill="none" xmlns="http://www.w3.org/2000/svg">
<path d="M1.82075 8.88767L7.46763 14.1595C7.702 14.3783 8.01138 14.5002 8.33325 14.5002C8.65513 14.5002 8.9645 14.3783 9.19888 14.1595L14.8458 8.88767C15.7958 8.00329 16.3333 6.76267 16.3333 5.46579V5.28454C16.3333 3.10017 14.7551 1.23767 12.602 0.878292C11.177 0.640792 9.727 1.10642 8.70825 2.12517L8.33325 2.50017L7.95825 2.12517C6.9395 1.10642 5.4895 0.640792 4.0645 0.878292C1.91138 1.23767 0.333252 3.10017 0.333252 5.28454V5.46579C0.333252 6.76267 0.870752 8.00329 1.82075 8.88767Z" fill="#424242"/>
</svg>
