<svg width="144" height="125" viewBox="0 0 144 125" fill="none" xmlns="http://www.w3.org/2000/svg">
<path fill-rule="evenodd" clip-rule="evenodd" d="M50.2628 124.999C71.3573 124.999 89.417 113.275 96.8726 96.6558C96.9638 96.4531 66.9395 104.459 67.8968 101.629C68.3243 100.365 86.7293 93.6414 100.139 85.799C107.846 81.2914 111.395 71.7495 111.395 71.7495C111.395 71.7495 98.4102 78.0537 91.8461 79.6529C78.6184 82.876 66.9743 82.5289 66.9743 82.1931C66.9743 81.4669 86.3089 77.7932 113.182 61.4175C125.822 53.7149 129.255 40.4472 129.255 40.4472C129.255 40.4472 115.358 48.7249 106.957 51.4578C87.0348 57.9387 68.8542 59.8917 68.8542 59.0147C68.8542 57.1371 84.8537 52.7375 101.817 44.518C110.637 40.2444 118.275 34.661 127.127 28.4519C141.611 18.2928 144 0.199463 144 0.199463C144 0.199463 129.714 9.41324 122.743 12.473C93.9772 25.0988 68.5769 31.7217 50.2628 33.1555C22.617 35.32 0 54.609 0 79.6529C0 104.697 22.5033 124.999 50.2628 124.999Z" fill="#89AAE3"/>
</svg>
