<svg width="12" height="14" viewBox="0 0 12 14" fill="none" xmlns="http://www.w3.org/2000/svg">
<path d="M11.125 11.8661H0.875C0.80625 11.8661 0.75 11.9223 0.75 11.9911V12.9286C0.75 12.9973 0.80625 13.0536 0.875 13.0536H11.125C11.1938 13.0536 11.25 12.9973 11.25 12.9286V11.9911C11.25 11.9223 11.1938 11.8661 11.125 11.8661ZM11.125 0.553589L0.875 0.553589C0.80625 0.553589 0.75 0.609839 0.75 0.678589L0.75 1.61609C0.75 1.68484 0.80625 1.74109 0.875 1.74109L11.125 1.74109C11.1938 1.74109 11.25 1.68484 11.25 1.61609V0.678589C11.25 0.609839 11.1938 0.553589 11.125 0.553589ZM7.54375 4.70984C7.6375 4.70984 7.69063 4.60046 7.63281 4.52703L6.05781 2.53328C6.04739 2.51978 6.03401 2.50886 6.01871 2.50135C6.0034 2.49383 5.98658 2.48992 5.96953 2.48992C5.95248 2.48992 5.93566 2.49383 5.92036 2.50135C5.90505 2.50886 5.89167 2.51978 5.88125 2.53328L4.30625 4.52703C4.29313 4.54371 4.28497 4.56375 4.28271 4.58485C4.28046 4.60595 4.28419 4.62727 4.29348 4.64635C4.30278 4.66543 4.31726 4.6815 4.33527 4.69273C4.35328 4.70396 4.37409 4.70989 4.39531 4.70984H5.4375L5.4375 8.89734H4.45625C4.3625 8.89734 4.30938 9.00671 4.36719 9.08015L5.94219 11.0723C5.9875 11.1302 6.075 11.1302 6.11875 11.0723L7.69375 9.08015C7.75156 9.00671 7.7 8.89734 7.60469 8.89734H6.5625L6.5625 4.70984H7.54375Z" fill="#424242"/>
</svg>
