<svg width="16" height="17" viewBox="0 0 16 17" fill="none" xmlns="http://www.w3.org/2000/svg">
<path d="M8.68122 0.768652C8.29684 0.412402 7.70309 0.412402 7.32184 0.768652L0.321844 7.26865C0.0218444 7.5499 -0.0781556 7.98428 0.0718444 8.36553C0.221844 8.74678 0.587469 8.9999 0.999969 8.9999H1.49997V14.4999C1.49997 15.603 2.39684 16.4999 3.49997 16.4999H12.5C13.6031 16.4999 14.5 15.603 14.5 14.4999V8.9999H15C15.4125 8.9999 15.7812 8.74678 15.9312 8.36553C16.0812 7.98428 15.9812 7.54678 15.6812 7.26865L8.68122 0.768652ZM7.49997 10.4999H8.49997C9.32809 10.4999 9.99997 11.1718 9.99997 11.9999V14.9999H5.99997V11.9999C5.99997 11.1718 6.67184 10.4999 7.49997 10.4999Z" fill="#424242"/>
</svg>
