<svg width="16" height="15" viewBox="0 0 16 15" fill="none" xmlns="http://www.w3.org/2000/svg">
<path d="M8.00016 14.4707C11.6822 14.4707 14.6668 11.486 14.6668 7.804C14.6668 4.122 11.6822 1.13733 8.00016 1.13733C4.31816 1.13733 1.3335 4.122 1.3335 7.804C1.3335 11.486 4.31816 14.4707 8.00016 14.4707Z" stroke="#424242" stroke-linecap="round" stroke-linejoin="round"/>
<path d="M8.00024 9.80371C8.53068 9.80371 9.03939 9.593 9.41446 9.21792C9.78953 8.84285 10.0002 8.33414 10.0002 7.80371C10.0002 7.27328 9.78953 6.76457 9.41446 6.3895C9.03939 6.01442 8.53068 5.80371 8.00024 5.80371C7.46981 5.80371 6.9611 6.01442 6.58603 6.3895C6.21096 6.76457 6.00024 7.27328 6.00024 7.80371C6.00024 8.33414 6.21096 8.84285 6.58603 9.21792C6.9611 9.593 7.46981 9.80371 8.00024 9.80371V9.80371Z" stroke="#424242" stroke-linecap="round" stroke-linejoin="round"/>
<path d="M1.3335 7.80383H6.00016M10.0002 7.80383H14.6668" stroke="#424242"/>
</svg>
