<svg width="17" height="17" viewBox="0 0 17 17" fill="none" xmlns="http://www.w3.org/2000/svg">
<path d="M11.6667 8.5C11.6667 9.19375 11.6292 9.8625 11.5636 10.5H5.773C5.70425 9.8625 5.66987 9.19375 5.66987 8.5C5.66987 7.80625 5.70737 7.1375 5.773 6.5H11.5636C11.6324 7.1375 11.6667 7.80625 11.6667 8.5ZM12.5667 6.5H16.4136C16.5792 7.14062 16.6667 7.80937 16.6667 8.5C16.6667 9.19063 16.5792 9.85938 16.4136 10.5H12.5667C12.6324 9.85625 12.6667 9.1875 12.6667 8.5C12.6667 7.8125 12.6324 7.14375 12.5667 6.5ZM16.0855 5.5H12.4386C12.1261 3.50312 11.5074 1.83125 10.7105 0.7625C13.1574 1.40938 15.148 3.18438 16.0824 5.5H16.0855ZM11.4261 5.5H5.90737C6.098 4.3625 6.39175 3.35625 6.75112 2.54063C7.07925 1.80313 7.44487 1.26875 7.798 0.93125C8.148 0.6 8.43862 0.5 8.66675 0.5C8.89487 0.5 9.1855 0.6 9.5355 0.93125C9.88862 1.26875 10.2542 1.80313 10.5824 2.54063C10.9449 3.35313 11.2355 4.35938 11.4261 5.5ZM4.89487 5.5H1.248C2.1855 3.18438 4.173 1.40938 6.623 0.7625C5.82612 1.83125 5.20737 3.50312 4.89487 5.5ZM0.919873 6.5H4.76675C4.70112 7.14375 4.66675 7.8125 4.66675 8.5C4.66675 9.1875 4.70112 9.85625 4.76675 10.5H0.919873C0.754248 9.85938 0.666748 9.19063 0.666748 8.5C0.666748 7.80937 0.754248 7.14062 0.919873 6.5ZM6.75112 14.4563C6.38862 13.6438 6.098 12.6375 5.90737 11.5H11.4261C11.2355 12.6375 10.9417 13.6438 10.5824 14.4563C10.2542 15.1938 9.88862 15.7281 9.5355 16.0656C9.1855 16.4 8.89487 16.5 8.66675 16.5C8.43862 16.5 8.148 16.4 7.798 16.0688C7.44487 15.7313 7.07925 15.1969 6.75112 14.4594V14.4563ZM4.89487 11.5C5.20737 13.4969 5.82612 15.1687 6.623 16.2375C4.173 15.5906 2.1855 13.8156 1.248 11.5H4.89487ZM16.0855 11.5C15.148 13.8156 13.1605 15.5906 10.7136 16.2375C11.5105 15.1687 12.1261 13.4969 12.4417 11.5H16.0886H16.0855Z" fill="#424242"/>
</svg>
