<svg width="14" height="17" viewBox="0 0 14 17" fill="none" xmlns="http://www.w3.org/2000/svg">
<path d="M7 8.25C7.49246 8.25 7.98009 8.153 8.43506 7.96455C8.89003 7.77609 9.30343 7.49987 9.65165 7.15165C9.99987 6.80343 10.2761 6.39003 10.4645 5.93506C10.653 5.48009 10.75 4.99246 10.75 4.5C10.75 4.00754 10.653 3.51991 10.4645 3.06494C10.2761 2.60997 9.99987 2.19657 9.65165 1.84835C9.30343 1.50013 8.89003 1.22391 8.43506 1.03545C7.98009 0.846997 7.49246 0.75 7 0.75C6.50754 0.75 6.01991 0.846997 5.56494 1.03545C5.10997 1.22391 4.69657 1.50013 4.34835 1.84835C4.00013 2.19657 3.72391 2.60997 3.53545 3.06494C3.347 3.51991 3.25 4.00754 3.25 4.5C3.25 4.99246 3.347 5.48009 3.53545 5.93506C3.72391 6.39003 4.00013 6.80343 4.34835 7.15165C4.69657 7.49987 5.10997 7.77609 5.56494 7.96455C6.01991 8.153 6.50754 8.25 7 8.25ZM6.07188 10C2.99375 10 0.5 12.4937 0.5 15.5719C0.5 16.0844 0.915625 16.5 1.42813 16.5H12.5719C13.0844 16.5 13.5 16.0844 13.5 15.5719C13.5 12.4937 11.0063 10 7.92812 10H6.07188Z" fill="#424242"/>
</svg>
