<svg width="12" height="12" viewBox="0 0 12 12" fill="none" xmlns="http://www.w3.org/2000/svg">
<path d="M6 0.303955C5.1775 0.303955 4.5 0.981455 4.5 1.80396C4.5 1.97996 4.537 2.14596 4.594 2.30396L2.094 2.30396L2.0155 2.71046L0.5155 10.2105L0.5 10.257L0.5 11.304H11.5V10.257L11.4845 10.2105L9.9845 2.71046L9.906 2.30396H7.406C7.46606 2.14399 7.49786 1.97481 7.5 1.80396C7.5 0.981455 6.8225 0.303955 6 0.303955ZM6 1.30396C6.2815 1.30396 6.5 1.52296 6.5 1.80396C6.5 2.08546 6.281 2.30396 6 2.30396C5.7185 2.30396 5.5 2.08496 5.5 1.80396C5.5 1.52246 5.719 1.30396 6 1.30396ZM2.906 3.30396L9.094 3.30396L10.5 10.304H1.5L2.906 3.30396Z" fill="#424242"/>
</svg>
